<svg width="683" height="216" viewBox="0 0 683 216" fill="none" xmlns="http://www.w3.org/2000/svg">
<rect width="683" height="216" rx="8" fill="#1C231F"/>
<g filter="url(#filter0_d)">
<path d="M212.422 119.288H212.832C212.976 121.831 214.391 123.205 216.831 123.205C219.312 123.205 220.871 121.523 220.871 118.816V105.281C220.871 102.328 219.395 100.729 216.708 100.729C214.001 100.729 212.545 102.328 212.545 105.281V113.136C212.545 115.351 211.622 116.561 209.899 116.561C208.218 116.561 207.213 115.351 207.213 113.136V105.281C207.213 102.328 205.757 100.729 203.07 100.729C200.363 100.729 198.887 102.328 198.887 105.281V115.248C198.887 120.437 201.45 123.205 206.044 123.205C209.059 123.205 211.663 121.646 212.422 119.288ZM224.029 118.673C224.029 120.211 225.014 121.482 226.839 122.364C228.5 123.164 230.797 123.615 233.463 123.615C240.148 123.615 244.024 120.703 244.024 115.884C244.024 112.356 242.076 110.203 237.995 109.444L234.242 108.747C232.807 108.48 232.212 108.091 232.212 107.332C232.212 106.553 232.909 105.896 234.078 105.896C234.796 105.896 235.678 106.061 237.441 106.696C238.692 107.147 239.595 107.332 240.271 107.332C241.974 107.332 243.163 106.368 243.163 104.769C243.163 103.21 242.076 101.979 240.066 101.2C238.467 100.585 236.539 100.277 234.55 100.277C228.336 100.277 224.296 103.312 224.296 107.824C224.296 111.331 226.285 113.443 230.797 114.346L233.237 114.838C235.329 115.269 236.108 115.822 236.108 116.643C236.108 117.442 235.309 117.914 233.914 117.914C232.786 117.914 231.761 117.606 229.771 116.786C228.479 116.253 227.762 116.007 226.9 116.007C225.198 116.007 224.029 117.094 224.029 118.673ZM246.321 112.89C246.321 119.616 250.833 123.615 258.175 123.615C260.861 123.615 263.117 123.144 264.696 122.303C266.316 121.441 267.239 120.272 267.239 118.796C267.239 117.114 266.193 116.109 264.532 116.109C263.281 116.109 262.728 116.622 261.784 117.053C261.107 117.36 260.246 117.606 258.79 117.606C256.309 117.606 254.873 116.212 254.812 114.284V113.669H263.917C266.747 113.669 267.896 112.623 267.896 110.019C267.896 104.502 263.507 100.277 257.334 100.277C250.648 100.277 246.321 104.502 246.321 111.044V112.89ZM254.812 109.362V109.321C254.812 107.496 255.755 106.266 257.519 106.266C259.098 106.266 260.144 107.496 260.144 109.321V109.362H254.812ZM269.844 111.557C269.844 113.812 271.484 115.207 274.13 115.207H279.729C282.354 115.207 284.015 113.792 284.015 111.536C284.015 109.26 282.354 107.824 279.729 107.824H274.13C271.525 107.824 269.844 109.28 269.844 111.557ZM294.269 115.863C294.269 114.694 295.273 113.915 296.791 113.915H298.924V115.884C298.924 116.95 297.857 117.812 296.524 117.812C295.232 117.812 294.269 116.991 294.269 115.863ZM298.903 120.416H299.313C299.703 122.221 301.159 123.205 303.21 123.205C305.794 123.205 307.25 121.688 307.25 118.857V108.665C307.25 103.559 303.518 100.585 297.017 100.585C294.228 100.585 292.074 101.016 290.516 101.713C288.301 102.656 287.357 104.092 287.357 105.486C287.357 107.024 288.403 108.193 290.167 108.193C291.397 108.193 292.197 107.906 292.977 107.558C294.063 107.065 295.109 106.471 296.463 106.471C297.98 106.471 298.924 107.209 298.924 108.521V109.813H294.576C289.326 109.834 286.147 112.377 286.147 116.561C286.147 120.519 289.08 123.205 293.407 123.205C295.95 123.205 298.042 122.139 298.903 120.416ZM332.741 118.693V108.686C332.741 103.497 330.157 100.585 325.563 100.585C322.549 100.585 319.944 102.246 319.186 104.604H318.775C318.632 102.062 317.217 100.729 314.776 100.729C312.295 100.729 310.736 102.369 310.736 105.076V118.652C310.736 121.605 312.213 123.205 314.92 123.205C317.606 123.205 319.062 121.605 319.062 118.652V110.839C319.062 108.706 320.149 107.373 321.77 107.373C323.41 107.373 324.415 108.706 324.415 110.777V118.652C324.415 121.605 325.871 123.205 328.578 123.205C331.265 123.205 332.741 121.646 332.741 118.693ZM335.059 127.225C335.059 128.086 335.366 128.824 335.961 129.398C336.884 130.301 338.483 130.772 340.596 130.772C346.584 130.772 349.722 128.332 351.588 122.733L357.043 106.327C357.289 105.568 357.392 105.056 357.392 104.522C357.392 102.328 355.751 100.729 353.495 100.729C351.219 100.729 349.865 101.959 349.312 104.522L346.625 117.012H346.297L343.795 104.522C343.282 101.979 341.847 100.729 339.509 100.729C337.191 100.729 335.469 102.328 335.469 104.522C335.469 105.056 335.53 105.568 335.756 106.327L341.334 123.144C341.334 123.492 341.313 123.943 341.17 124.23C340.903 124.743 340.268 125.051 339.324 125.051C338.463 125.03 338.114 124.887 337.438 124.887C336.022 124.887 335.059 125.892 335.059 127.225ZM362.785 117.381C363.77 121.298 365.697 123.205 368.609 123.205C371.747 123.205 373.511 121.482 374.393 117.381L376.156 109.26H376.484L378.289 117.381C379.191 121.482 380.955 123.205 384.072 123.205C386.923 123.205 388.748 121.421 389.896 117.381L393.034 106.409C393.239 105.671 393.383 104.912 393.383 104.502C393.383 102.287 391.783 100.729 389.22 100.729C387.128 100.729 385.692 102.144 385.303 104.563L383.56 115.433H383.19L380.955 104.543C380.504 102.267 378.802 100.729 376.3 100.729C373.839 100.729 372.28 102.185 371.809 104.543L369.573 115.433H369.204L367.625 104.379C367.297 102.021 365.943 100.729 363.811 100.729C361.329 100.729 359.709 102.246 359.709 104.502C359.709 104.851 359.771 105.22 359.976 106.143L362.785 117.381ZM418.238 118.652V108.686C418.238 103.538 415.593 100.585 411.04 100.585C408.128 100.585 405.605 102.226 404.867 104.604H404.457V97.8779C404.457 94.9248 403.001 93.3252 400.314 93.3252C397.607 93.3252 396.131 94.9248 396.131 97.8779V118.652C396.131 121.605 397.587 123.205 400.294 123.205C402.98 123.205 404.457 121.605 404.457 118.652V110.839C404.457 108.768 405.585 107.373 407.226 107.373C408.928 107.373 409.912 108.624 409.912 110.777V118.652C409.912 121.605 411.389 123.205 414.096 123.205C416.782 123.205 418.238 121.605 418.238 118.652ZM421.171 112.89C421.171 119.616 425.683 123.615 433.024 123.615C435.711 123.615 437.967 123.144 439.546 122.303C441.166 121.441 442.089 120.272 442.089 118.796C442.089 117.114 441.043 116.109 439.382 116.109C438.131 116.109 437.577 116.622 436.634 117.053C435.957 117.36 435.096 117.606 433.64 117.606C431.158 117.606 429.723 116.212 429.661 114.284V113.669H438.767C441.597 113.669 442.745 112.623 442.745 110.019C442.745 104.502 438.356 100.277 432.184 100.277C425.498 100.277 421.171 104.502 421.171 111.044V112.89ZM429.661 109.362V109.321C429.661 107.496 430.604 106.266 432.368 106.266C433.947 106.266 434.993 107.496 434.993 109.321V109.362H429.661ZM454.086 118.652V112.069C454.086 109.157 455.439 107.578 458.311 107.435C459.479 107.373 460.361 107.086 460.936 106.553C461.51 105.999 461.797 105.199 461.797 104.133C461.797 103.025 461.489 102.144 460.915 101.528C460.32 100.913 459.479 100.585 458.413 100.585C456.239 100.585 454.722 102 454.209 104.44H453.799C453.553 101.979 452.22 100.729 449.82 100.729C447.154 100.729 445.76 102.328 445.76 105.281V118.652C445.76 121.564 447.052 123.205 449.8 123.205C452.548 123.205 454.086 121.564 454.086 118.652ZM462.884 112.89C462.884 119.616 467.396 123.615 474.737 123.615C477.424 123.615 479.68 123.144 481.259 122.303C482.879 121.441 483.802 120.272 483.802 118.796C483.802 117.114 482.756 116.109 481.095 116.109C479.844 116.109 479.29 116.622 478.347 117.053C477.67 117.36 476.809 117.606 475.353 117.606C472.871 117.606 471.436 116.212 471.374 114.284V113.669H480.479C483.31 113.669 484.458 112.623 484.458 110.019C484.458 104.502 480.069 100.277 473.896 100.277C467.211 100.277 462.884 104.502 462.884 111.044V112.89ZM471.374 109.362V109.321C471.374 107.496 472.317 106.266 474.081 106.266C475.66 106.266 476.706 107.496 476.706 109.321V109.362H471.374Z" fill="white"/>
</g>
<defs>
<filter id="filter0_d" x="198.887" y="93.3252" width="285.571" height="41.4473" filterUnits="userSpaceOnUse" color-interpolation-filters="sRGB">
<feFlood flood-opacity="0" result="BackgroundImageFix"/>
<feColorMatrix in="SourceAlpha" type="matrix" values="0 0 0 0 0 0 0 0 0 0 0 0 0 0 0 0 0 0 127 0"/>
<feOffset dy="4"/>
<feColorMatrix type="matrix" values="0 0 0 0 0.223529 0 0 0 0 0.585177 0 0 0 0 0.847059 0 0 0 1 0"/>
<feBlend mode="normal" in2="BackgroundImageFix" result="effect1_dropShadow"/>
<feBlend mode="normal" in="SourceGraphic" in2="effect1_dropShadow" result="shape"/>
</filter>
</defs>
</svg>
